<?xml version="1.0" encoding="UTF-8" standalone="no"?>
<!-- Created with Inkscape (http://www.inkscape.org/) -->

<svg
   xmlns:dc="http://purl.org/dc/elements/1.1/"
   xmlns:cc="http://creativecommons.org/ns#"
   xmlns:rdf="http://www.w3.org/1999/02/22-rdf-syntax-ns#"
   xmlns:svg="http://www.w3.org/2000/svg"
   xmlns="http://www.w3.org/2000/svg"
   xmlns:xlink="http://www.w3.org/1999/xlink"
   version="1.1"
   width="1120.4086"
   height="237.94342"
   id="svg2">
  <defs
     id="defs4">
    <linearGradient
       id="linearGradient4149">
      <stop
         id="stop4151"
         style="stop-color:#ffbf00;stop-opacity:1"
         offset="0" />
      <stop
         id="stop4153"
         style="stop-color:#e3a800;stop-opacity:1"
         offset="1" />
    </linearGradient>
    <linearGradient
       id="linearGradient3942">
      <stop
         id="stop3944"
         style="stop-color:#ffda00;stop-opacity:1"
         offset="0" />
      <stop
         id="stop3946"
         style="stop-color:#b29328;stop-opacity:1"
         offset="1" />
    </linearGradient>
    <filter
       color-interpolation-filters="sRGB"
       id="filter4065">
      <feFlood
         id="feFlood4067"
         result="flood"
         flood-color="rgb(0,0,0)"
         flood-opacity="0.5" />
      <feComposite
         in2="SourceGraphic"
         operator="in"
         in="flood"
         result="composite1"
         id="feComposite4069" />
      <feGaussianBlur
         id="feGaussianBlur4071"
         result="blur"
         stdDeviation="2" />
      <feOffset
         id="feOffset4073"
         result="offset"
         dy="2"
         dx="2" />
      <feComposite
         in2="offset"
         operator="over"
         in="SourceGraphic"
         result="composite2"
         id="feComposite4075" />
    </filter>
    <filter
       color-interpolation-filters="sRGB"
       id="filter4077">
      <feFlood
         id="feFlood4079"
         result="flood"
         flood-color="rgb(0,0,0)"
         flood-opacity="0.5" />
      <feComposite
         in2="SourceGraphic"
         operator="in"
         in="flood"
         result="composite1"
         id="feComposite4081" />
      <feGaussianBlur
         id="feGaussianBlur4083"
         result="blur"
         stdDeviation="2" />
      <feOffset
         id="feOffset4085"
         result="offset"
         dy="2"
         dx="2" />
      <feComposite
         in2="offset"
         operator="over"
         in="SourceGraphic"
         result="composite2"
         id="feComposite4087" />
    </filter>
    <filter
       color-interpolation-filters="sRGB"
       id="filter4089">
      <feFlood
         id="feFlood4091"
         result="flood"
         flood-color="rgb(0,0,0)"
         flood-opacity="0.5" />
      <feComposite
         in2="SourceGraphic"
         operator="in"
         in="flood"
         result="composite1"
         id="feComposite4093" />
      <feGaussianBlur
         id="feGaussianBlur4095"
         result="blur"
         stdDeviation="2" />
      <feOffset
         id="feOffset4097"
         result="offset"
         dy="2"
         dx="2" />
      <feComposite
         in2="offset"
         operator="over"
         in="SourceGraphic"
         result="composite2"
         id="feComposite4099" />
    </filter>
    <filter
       color-interpolation-filters="sRGB"
       id="filter4101">
      <feFlood
         id="feFlood4103"
         result="flood"
         flood-color="rgb(0,0,0)"
         flood-opacity="0.5" />
      <feComposite
         in2="SourceGraphic"
         operator="in"
         in="flood"
         result="composite1"
         id="feComposite4105" />
      <feGaussianBlur
         id="feGaussianBlur4107"
         result="blur"
         stdDeviation="2" />
      <feOffset
         id="feOffset4109"
         result="offset"
         dy="2"
         dx="2" />
      <feComposite
         in2="offset"
         operator="over"
         in="SourceGraphic"
         result="composite2"
         id="feComposite4111" />
    </filter>
    <filter
       color-interpolation-filters="sRGB"
       id="filter4113">
      <feFlood
         id="feFlood4115"
         result="flood"
         flood-color="rgb(0,0,0)"
         flood-opacity="0.5" />
      <feComposite
         in2="SourceGraphic"
         operator="in"
         in="flood"
         result="composite1"
         id="feComposite4117" />
      <feGaussianBlur
         id="feGaussianBlur4119"
         result="blur"
         stdDeviation="2" />
      <feOffset
         id="feOffset4121"
         result="offset"
         dy="2"
         dx="2" />
      <feComposite
         in2="offset"
         operator="over"
         in="SourceGraphic"
         result="composite2"
         id="feComposite4123" />
    </filter>
    <filter
       color-interpolation-filters="sRGB"
       id="filter4125">
      <feFlood
         id="feFlood4127"
         result="flood"
         flood-color="rgb(0,0,0)"
         flood-opacity="0.5" />
      <feComposite
         in2="SourceGraphic"
         operator="in"
         in="flood"
         result="composite1"
         id="feComposite4129" />
      <feGaussianBlur
         id="feGaussianBlur4131"
         result="blur"
         stdDeviation="2" />
      <feOffset
         id="feOffset4133"
         result="offset"
         dy="2"
         dx="2" />
      <feComposite
         in2="offset"
         operator="over"
         in="SourceGraphic"
         result="composite2"
         id="feComposite4135" />
    </filter>
    <filter
       color-interpolation-filters="sRGB"
       id="filter4137">
      <feFlood
         id="feFlood4139"
         result="flood"
         flood-color="rgb(0,0,0)"
         flood-opacity="0.5" />
      <feComposite
         in2="SourceGraphic"
         operator="in"
         in="flood"
         result="composite1"
         id="feComposite4141" />
      <feGaussianBlur
         id="feGaussianBlur4143"
         result="blur"
         stdDeviation="2" />
      <feOffset
         id="feOffset4145"
         result="offset"
         dy="2"
         dx="2" />
      <feComposite
         in2="offset"
         operator="over"
         in="SourceGraphic"
         result="composite2"
         id="feComposite4147" />
    </filter>
    <filter
       color-interpolation-filters="sRGB"
       id="filter4155">
      <feFlood
         id="feFlood4157"
         result="flood"
         flood-color="rgb(0,0,0)"
         flood-opacity="0.5" />
      <feComposite
         in2="SourceGraphic"
         operator="in"
         in="flood"
         result="composite1"
         id="feComposite4159" />
      <feGaussianBlur
         id="feGaussianBlur4161"
         result="blur"
         stdDeviation="2" />
      <feOffset
         id="feOffset4163"
         result="offset"
         dy="2"
         dx="2" />
      <feComposite
         in2="offset"
         operator="over"
         in="SourceGraphic"
         result="composite2"
         id="feComposite4165" />
    </filter>
    <radialGradient
       cx="-96.720329"
       cy="213.73764"
       r="171.52309"
       fx="-96.720329"
       fy="213.73764"
       id="radialGradient4230"
       xlink:href="#linearGradient4149"
       gradientUnits="userSpaceOnUse"
       gradientTransform="matrix(-0.35888222,0.56270126,-1.0358788,-0.66066761,-36.614292,157.34514)" />
  </defs>
  <metadata
     id="metadata7">
    <rdf:RDF>
      <cc:Work
         rdf:about="">
        <dc:format>image/svg+xml</dc:format>
        <dc:type
           rdf:resource="http://purl.org/dc/dcmitype/StillImage" />
        <dc:title></dc:title>
      </cc:Work>
    </rdf:RDF>
  </metadata>
  <g
     transform="translate(-63.49767,130.8125)"
     id="layer1">
    <path
       d="m 254.42728,25.977039 c -1.9e-4,2.576391 -1.9e-4,4.508625 0,5.796705 -1.9e-4,2.147001 -1.9e-4,3.757195 0,4.830589 -1.9e-4,12.022855 -1.23299,21.469329 -3.69839,28.33945 -8.62978,28.124775 -38.5251,42.187137 -89.68607,42.187137 -18.49205,0 -33.28562,-0.85877 -44.38073,-2.57632 C 105.56686,102.83706 95.704481,98.972597 87.074934,92.961192 76.596128,85.876355 69.969845,77.718034 67.196064,68.486215 64.730458,59.254471 63.49766,45.514145 63.49767,27.265196 l 0,-80.187764 c -10e-6,-21.898485 8.167271,-37.89308 24.501863,-47.983842 16.642727,-10.30504 40.682257,-15.45766 72.118697,-15.45788 18.80004,2.2e-4 33.74771,1.18103 44.84303,3.54242 11.09502,2.14715 20.8033,6.54835 29.12486,13.203613 8.32119,6.440989 14.02288,15.028689 17.10507,25.763141 2.15719,7.729113 3.2359,19.000473 3.23609,33.814116 l 0,11.593412 -78.59088,0 0,-28.983529 c -1.2e-4,-2.361455 -1.2e-4,-4.186342 0,-5.474667 -1.2e-4,-6.440608 -0.15422,-10.197729 -0.4623,-11.271372 -1.54112,-5.367134 -6.01,-8.050792 -13.40667,-8.050981 -10.47889,1.89e-4 -15.71827,4.61608 -15.71819,13.847687 l 0,124.629174 c -8e-5,11.378758 5.08521,17.068112 15.25588,17.068079 6.47208,3.3e-5 10.47867,-1.824855 12.01978,-5.474667 1.54088,-3.649736 2.31138,-11.05663 2.3115,-22.220705 l 0,-28.017412 78.59088,0 0,8.37302"
       id="path4172"
       style="font-size:395.10812378px;font-style:normal;font-variant:normal;font-weight:normal;font-stretch:normal;line-height:125%;letter-spacing:0px;word-spacing:0px;fill:#000000;fill-opacity:1;stroke:none;font-family:HeadLineA;-inkscape-font-specification:HeadLineA" />
    <path
       d="m 438.42241,106.1648 -71.6564,0 0,-127.849565 c -10e-5,-7.728805 -0.3083,-13.740197 -0.9246,-18.034195 -0.6165,-4.293706 -3.85259,-6.440632 -9.70828,-6.440785 -4.62308,1.53e-4 -7.70508,1.717694 -9.24598,5.152628 -1.54108,3.220536 -2.31158,9.017236 -2.3115,17.390117 l 0,129.7818 -71.19409,0 0,-221.56298 71.19409,0 0,49.594044 c 6.1639,-3.864295 12.32788,-6.440606 18.49197,-7.728942 6.16388,-1.287975 14.17707,-1.932053 24.03956,-1.932235 10.47865,1.82e-4 19.57053,1.180991 27.27566,3.542431 8.01302,2.147105 13.86882,5.689532 17.56738,10.627295 2.77362,3.864633 4.46871,9.231948 5.08529,16.10196 0.92442,6.655621 1.38672,15.350672 1.3869,26.085177 l 0,125.27325"
       id="path4174"
       style="font-size:395.10812378px;font-style:normal;font-variant:normal;font-weight:normal;font-stretch:normal;line-height:125%;letter-spacing:0px;word-spacing:0px;fill:#000000;fill-opacity:1;stroke:none;font-family:HeadLineA;-inkscape-font-specification:HeadLineA" />
    <path
       d="m 548.85912,-128.71701 -10.69171,48.488835 -73.88889,-0.128015 10.69171,-48.48884 73.88889,0.12802"
       id="path4195"
       style="font-size:395.10812378px;font-style:normal;font-variant:normal;font-weight:normal;font-stretch:normal;line-height:125%;letter-spacing:0px;word-spacing:0px;fill:#ffbf00;fill-opacity:1;stroke:#000000;stroke-width:3.90692449;stroke-linejoin:miter;stroke-miterlimit:4;stroke-opacity:1;stroke-dasharray:none;font-family:HeadLineA;-inkscape-font-specification:HeadLineA" />
    <path
       d="m 539.66593,106.1648 -77.66628,0 0,-181.630113 77.66628,0 0,181.630113"
       id="path4176"
       style="font-size:395.10812378px;font-style:normal;font-variant:normal;font-weight:normal;font-stretch:normal;line-height:125%;letter-spacing:0px;word-spacing:0px;fill:#000000;fill-opacity:1;stroke:none;font-family:HeadLineA;-inkscape-font-specification:HeadLineA" />
    <path
       d="m 674.65737,106.1648 -28.66257,0 c -17.25924,0 -28.97081,-0.53673 -35.13475,-1.6102 -11.40342,-1.93223 -19.8789,-6.548118 -25.42645,-13.847679 -1.84923,-2.576295 -3.08203,-7.299533 -3.6984,-14.169726 -0.61642,-7.084826 -0.92463,-15.994569 -0.92459,-26.729254 l 0,-92.103215 -15.25589,0 0,-28.66149 15.25589,0 0,-28.983525 72.11868,0 0,28.983525 18.95428,0 0,28.66149 -18.95428,0 0,96.933803 c -9e-5,11.593451 0.77041,18.248922 2.3115,19.966431 1.54089,1.717572 8.01308,2.576343 19.41658,2.576314 l 0,28.983526"
       id="path4178"
       style="font-size:395.10812378px;font-style:normal;font-variant:normal;font-weight:normal;font-stretch:normal;line-height:125%;letter-spacing:0px;word-spacing:0px;fill:#000000;fill-opacity:1;stroke:none;font-family:HeadLineA;-inkscape-font-specification:HeadLineA" />
    <path
       d="m 807.79954,106.1648 -28.66255,0 c -17.25925,0 -28.97083,-0.53673 -35.13475,-1.6102 -11.40343,-1.93223 -19.87891,-6.548118 -25.42646,-13.847679 -1.84923,-2.576295 -3.08202,-7.299533 -3.69839,-14.169726 -0.61643,-7.084826 -0.92463,-15.994569 -0.92461,-26.729254 l 0,-92.103215 -15.25587,0 0,-28.66149 15.25587,0 0,-28.983525 72.1187,0 0,28.983525 18.95426,0 0,28.66149 -18.95426,0 0,96.933803 c -1.1e-4,11.593451 0.77039,18.248922 2.31149,19.966431 1.5409,1.717572 8.01308,2.576343 19.41657,2.576314 l 0,28.983526"
       id="path4180"
       style="font-size:395.10812378px;font-style:normal;font-variant:normal;font-weight:normal;font-stretch:normal;line-height:125%;letter-spacing:0px;word-spacing:0px;fill:#000000;fill-opacity:1;stroke:none;font-family:HeadLineA;-inkscape-font-specification:HeadLineA" />
    <path
       d="m 990.40776,43.367156 c -1.7e-4,2.576374 -1.7e-4,4.508607 0,5.796706 -1.7e-4,8.58776 -0.77067,15.457923 -2.3115,20.61051 -1.54117,4.937965 -5.39365,10.62732 -11.55748,17.068081 -7.08874,7.728952 -15.25602,12.988917 -24.50187,15.779917 -8.9379,2.57632 -21.41997,3.86447 -37.44625,3.86447 -20.95763,0 -38.06269,-2.46896 -51.31522,-7.406902 -13.2526,-5.152615 -22.49858,-13.310933 -27.73796,-24.474978 -2.4656,-4.937898 -3.85249,-11.056638 -4.16069,-18.356236 -0.30821,-7.299498 -0.4623,-12.666812 -0.46229,-16.101959 l 0,-52.814432 c -10e-6,-7.514121 0.30818,-13.954899 0.92459,-19.322352 0.92459,-5.367177 2.77379,-10.627146 5.5476,-15.779922 5.23937,-9.661013 13.86894,-16.638522 25.88875,-20.932548 12.32793,-4.50837 27.7379,-6.762642 46.22994,-6.762824 16.02627,1.82e-4 29.43293,1.610376 40.22003,4.830588 10.78685,3.005873 19.57052,8.051149 26.35107,15.135843 5.54743,5.796862 9.24582,12.881717 11.09517,21.254588 2.15724,8.373152 3.23594,18.034318 3.23611,28.9835294 l 0,24.1529406 -88.29918,0 0,38.966745 c -8e-5,5.582056 0.30813,10.197946 0.92461,13.847686 0.61631,3.649808 4.0065,5.474696 10.17058,5.474667 5.23929,2.9e-5 8.78358,-1.610166 10.63289,-4.830589 2.15728,-3.220355 3.23598,-7.836245 3.23609,-13.847686 l 0,-21.898666 63.33501,0 0,6.762823 m -67.49571,-54.424627 0,-12.881568 c -9e-5,-2.576181 -9e-5,-4.401068 0,-5.474666 -9e-5,-6.440643 -0.6165,-10.841841 -1.84919,-13.203608 -1.2329,-2.36147 -3.8526,-3.542279 -7.85909,-3.542432 -4.62308,1.53e-4 -7.70508,0.966269 -9.24599,2.898353 -1.23287,1.932383 -1.84928,5.367464 -1.8492,10.305255 l 0,21.898666 20.80347,0"
       id="path4182"
       style="font-size:395.10812378px;font-style:normal;font-variant:normal;font-weight:normal;font-stretch:normal;line-height:125%;letter-spacing:0px;word-spacing:0px;fill:#000000;fill-opacity:1;stroke:none;font-family:HeadLineA;-inkscape-font-specification:HeadLineA" />
    <path
       d="m 1132.3337,-14.599901 -5.0853,0 c -17.8757,1.2e-4 -28.9709,3.971933 -33.2856,11.91545 -2.7739,4.9380386 -4.1608,17.282863 -4.1607,37.03451 l 0,71.814741 -71.6564,0 0,-181.630113 71.6564,0 -3.2361,23.830902 c 5.5475,-8.587546 11.2492,-14.813632 17.1051,-18.678275 7.3967,-4.72306 16.9509,-7.514064 28.6626,-8.373019 l 0,64.085804"
       id="path4184"
       style="font-size:395.10812378px;font-style:normal;font-variant:normal;font-weight:normal;font-stretch:normal;line-height:125%;letter-spacing:0px;word-spacing:0px;fill:#000000;fill-opacity:1;stroke:none;font-family:HeadLineA;-inkscape-font-specification:HeadLineA" />
    <rect
       width="45.58358"
       height="60.673626"
       x="1136.3829"
       y="-76.840546"
       transform="matrix(0.99999999,-1.1276162e-4,0,1,0,0)"
       id="rect4221"
       style="fill:#ffc000;fill-opacity:1;stroke:#000000;stroke-width:3.85823536;stroke-linejoin:miter;stroke-miterlimit:4;stroke-opacity:1;stroke-dasharray:none" />
  </g>
</svg>
