<?xml version="1.0" encoding="UTF-8" standalone="no"?>
<!-- Created with Inkscape (http://www.inkscape.org/) -->

<svg
   xmlns:dc="http://purl.org/dc/elements/1.1/"
   xmlns:cc="http://creativecommons.org/ns#"
   xmlns:rdf="http://www.w3.org/1999/02/22-rdf-syntax-ns#"
   xmlns:svg="http://www.w3.org/2000/svg"
   xmlns="http://www.w3.org/2000/svg"
   xmlns:xlink="http://www.w3.org/1999/xlink"
   version="1.1"
   width="407.9761"
   height="367.2778"
   id="svg2">
  <defs
     id="defs4">
    <linearGradient
       id="linearGradient4149">
      <stop
         id="stop4151"
         style="stop-color:#ffbf00;stop-opacity:1"
         offset="0" />
      <stop
         id="stop4153"
         style="stop-color:#e3a800;stop-opacity:1"
         offset="1" />
    </linearGradient>
    <linearGradient
       id="linearGradient3942">
      <stop
         id="stop3944"
         style="stop-color:#ffda00;stop-opacity:1"
         offset="0" />
      <stop
         id="stop3946"
         style="stop-color:#b29328;stop-opacity:1"
         offset="1" />
    </linearGradient>
    <filter
       color-interpolation-filters="sRGB"
       id="filter4065">
      <feFlood
         id="feFlood4067"
         result="flood"
         flood-color="rgb(0,0,0)"
         flood-opacity="0.5" />
      <feComposite
         in2="SourceGraphic"
         operator="in"
         in="flood"
         result="composite1"
         id="feComposite4069" />
      <feGaussianBlur
         id="feGaussianBlur4071"
         result="blur"
         stdDeviation="2" />
      <feOffset
         id="feOffset4073"
         result="offset"
         dy="2"
         dx="2" />
      <feComposite
         in2="offset"
         operator="over"
         in="SourceGraphic"
         result="composite2"
         id="feComposite4075" />
    </filter>
    <filter
       color-interpolation-filters="sRGB"
       id="filter4077">
      <feFlood
         id="feFlood4079"
         result="flood"
         flood-color="rgb(0,0,0)"
         flood-opacity="0.5" />
      <feComposite
         in2="SourceGraphic"
         operator="in"
         in="flood"
         result="composite1"
         id="feComposite4081" />
      <feGaussianBlur
         id="feGaussianBlur4083"
         result="blur"
         stdDeviation="2" />
      <feOffset
         id="feOffset4085"
         result="offset"
         dy="2"
         dx="2" />
      <feComposite
         in2="offset"
         operator="over"
         in="SourceGraphic"
         result="composite2"
         id="feComposite4087" />
    </filter>
    <filter
       color-interpolation-filters="sRGB"
       id="filter4089">
      <feFlood
         id="feFlood4091"
         result="flood"
         flood-color="rgb(0,0,0)"
         flood-opacity="0.5" />
      <feComposite
         in2="SourceGraphic"
         operator="in"
         in="flood"
         result="composite1"
         id="feComposite4093" />
      <feGaussianBlur
         id="feGaussianBlur4095"
         result="blur"
         stdDeviation="2" />
      <feOffset
         id="feOffset4097"
         result="offset"
         dy="2"
         dx="2" />
      <feComposite
         in2="offset"
         operator="over"
         in="SourceGraphic"
         result="composite2"
         id="feComposite4099" />
    </filter>
    <filter
       color-interpolation-filters="sRGB"
       id="filter4101">
      <feFlood
         id="feFlood4103"
         result="flood"
         flood-color="rgb(0,0,0)"
         flood-opacity="0.5" />
      <feComposite
         in2="SourceGraphic"
         operator="in"
         in="flood"
         result="composite1"
         id="feComposite4105" />
      <feGaussianBlur
         id="feGaussianBlur4107"
         result="blur"
         stdDeviation="2" />
      <feOffset
         id="feOffset4109"
         result="offset"
         dy="2"
         dx="2" />
      <feComposite
         in2="offset"
         operator="over"
         in="SourceGraphic"
         result="composite2"
         id="feComposite4111" />
    </filter>
    <filter
       color-interpolation-filters="sRGB"
       id="filter4113">
      <feFlood
         id="feFlood4115"
         result="flood"
         flood-color="rgb(0,0,0)"
         flood-opacity="0.5" />
      <feComposite
         in2="SourceGraphic"
         operator="in"
         in="flood"
         result="composite1"
         id="feComposite4117" />
      <feGaussianBlur
         id="feGaussianBlur4119"
         result="blur"
         stdDeviation="2" />
      <feOffset
         id="feOffset4121"
         result="offset"
         dy="2"
         dx="2" />
      <feComposite
         in2="offset"
         operator="over"
         in="SourceGraphic"
         result="composite2"
         id="feComposite4123" />
    </filter>
    <filter
       color-interpolation-filters="sRGB"
       id="filter4125">
      <feFlood
         id="feFlood4127"
         result="flood"
         flood-color="rgb(0,0,0)"
         flood-opacity="0.5" />
      <feComposite
         in2="SourceGraphic"
         operator="in"
         in="flood"
         result="composite1"
         id="feComposite4129" />
      <feGaussianBlur
         id="feGaussianBlur4131"
         result="blur"
         stdDeviation="2" />
      <feOffset
         id="feOffset4133"
         result="offset"
         dy="2"
         dx="2" />
      <feComposite
         in2="offset"
         operator="over"
         in="SourceGraphic"
         result="composite2"
         id="feComposite4135" />
    </filter>
    <filter
       color-interpolation-filters="sRGB"
       id="filter4137">
      <feFlood
         id="feFlood4139"
         result="flood"
         flood-color="rgb(0,0,0)"
         flood-opacity="0.5" />
      <feComposite
         in2="SourceGraphic"
         operator="in"
         in="flood"
         result="composite1"
         id="feComposite4141" />
      <feGaussianBlur
         id="feGaussianBlur4143"
         result="blur"
         stdDeviation="2" />
      <feOffset
         id="feOffset4145"
         result="offset"
         dy="2"
         dx="2" />
      <feComposite
         in2="offset"
         operator="over"
         in="SourceGraphic"
         result="composite2"
         id="feComposite4147" />
    </filter>
    <filter
       color-interpolation-filters="sRGB"
       id="filter4155">
      <feFlood
         id="feFlood4157"
         result="flood"
         flood-color="rgb(0,0,0)"
         flood-opacity="0.5" />
      <feComposite
         in2="SourceGraphic"
         operator="in"
         in="flood"
         result="composite1"
         id="feComposite4159" />
      <feGaussianBlur
         id="feGaussianBlur4161"
         result="blur"
         stdDeviation="2" />
      <feOffset
         id="feOffset4163"
         result="offset"
         dy="2"
         dx="2" />
      <feComposite
         in2="offset"
         operator="over"
         in="SourceGraphic"
         result="composite2"
         id="feComposite4165" />
    </filter>
    <radialGradient
       cx="-96.720329"
       cy="213.73764"
       r="171.52309"
       fx="-96.720329"
       fy="213.73764"
       id="radialGradient4230"
       xlink:href="#linearGradient4149"
       gradientUnits="userSpaceOnUse"
       gradientTransform="matrix(-0.35888222,0.56270126,-1.0358788,-0.66066761,-36.614292,157.34514)" />
  </defs>
  <metadata
     id="metadata7">
    <rdf:RDF>
      <cc:Work
         rdf:about="">
        <dc:format>image/svg+xml</dc:format>
        <dc:type
           rdf:resource="http://purl.org/dc/dcmitype/StillImage" />
        <dc:title></dc:title>
      </cc:Work>
    </rdf:RDF>
  </metadata>
  <g
     transform="translate(355.28893,203.23448)"
     id="layer1">
    <g
       transform="matrix(0.99238821,0.12314887,-0.12314887,0.99238821,7.8295701,1.3728283)"
       id="g4223">
      <path
         d="m -205.29025,-149.78465 c -7.21547,-0.008 -13.55014,7.99841 -17.26976,22.20769 -0.14211,0.54286 -2.94216,2.01725 -6.25445,3.26947 l -6.03664,2.28245 -3.98293,-2.62174 c -2.18665,-1.43437 -5.76917,-2.85403 -7.96587,-3.14609 -9.63912,-1.28154 -12.5918,2.44928 -11.85545,14.95935 l 0.46675,7.95776 -5.81882,6.323022 c -3.20472,3.47072 -7.05046,8.24635 -8.55708,10.61034 -2.66102,4.17532 -2.89287,4.28535 -7.93476,4.28732 -19.77899,0.007 -34.77673,19.96277 -29.71642,39.54203 0.88991,3.44323 2.4625,7.59064 3.48507,9.19152 l 1.83588,2.89934 -6.75232,3.20777 c -12.66452,6.01613 -18.49521,13.59491 -19.57238,25.4463205 -1.40589,15.4680895 7.45363,33.4933295 23.86649,48.6101695 22.17724,20.42603 49.48984,26.19954 74.49331,15.76129 1.2755,-0.53249 1.73475,0.16582 2.2404,3.30031 0.79922,4.95424 3.59928,7.00258 9.55282,7.00159 6.40056,-9.9e-4 15.65432,-4.63033 22.62183,-11.31975 l 5.75658,-5.52108 1.99147,2.74512 c 1.10277,1.51138 4.52587,5.65092 7.59247,9.19151 l 5.56988,6.41556 -3.734,7.61847 c -9.83828,19.976818 -14.87377,31.612488 -14.87377,34.391078 0,1.67575 0.96691,4.40258 2.14705,6.04543 2.58184,3.59408 11.69381,9.57897 18.38996,12.09086 2.67519,1.00353 6.77835,3.52917 9.1483,5.58277 4.34275,3.7631 11.94629,6.79699 21.59497,8.66717 2.73827,0.53075 10.79439,0.88779 17.92319,0.7711 10.94223,-0.17912 13.49881,-0.54212 16.39849,-2.22077 4.23549,-2.45199 4.6826,-4.22512 5.601,-22.7629 l 0.68457,-13.94149 12.073268,0.0925 c 12.92048,0.0955 20.49476,-1.32321 30.08982,-5.6753 l 5.07202,-2.3133 3.67176,10.98047 c 5.01005,15.07663 7.14472,18.63278 11.88657,19.80187 10.93342,2.69559 37.9222561,-7.53413 48.6042361,-18.44473 7.4911099,-7.65144 6.6996299,-10.40518 -9.92621,-35.254708 -9.1440261,-13.66697 -10.1076261,-15.54352 -8.9927161,-17.3035 16.3243761,-25.76945 20.9605361,-40.30862 20.9415161,-65.6360695 -0.0126,-16.7123205 -2.05939,-28.7716705 -7.68582,-45.0939505 -4.43733,-12.87269 -5.51292,-14.51668 -10.517436,-16.50155 -5.1688101,-2.05002 -9.4202801,-1.96095 -14.5314801,0.33929 -5.80184,2.61104 -7.69122,6.50067 -6.9079,14.28078 1.81597,18.03661 1.8278,20.21248 0.1867,27.38948 -0.91342,3.99464 -2.27109,8.35873 -3.04944,9.71587 -1.37397,2.39578 -1.42823,2.34797 -1.46248,-2.25161 -0.0759,-10.18202 -5.37121,-13.69798 -14.59372,-9.65418 -2.63742,1.15643 -5.51083,2.77126 -6.41003,3.5779 -2.82979,2.53848 -4.39686,0.86222 -4.63639,-4.99673 -0.58937,-14.41615 -10.45126,-17.34693 -21.2838,-6.32302 -2.62227,2.6686 -4.99158,4.84251 -5.28984,4.84251 -0.29825,0 -1.43802,-1.72152 -2.52045,-3.82466 -4.05427,-7.87739 -12.359008,-11.57056 -16.305128,-7.24834 -2.20657,2.41686 -4.6675,8.50847 -4.6675,11.53566 0,3.26235 -0.80158,3.1681 -6.84567,-0.86363 -6.4544,-4.30543 -10.1572,-5.1245 -14.15809,-3.14609 -2.87437,1.42137 -3.02685,1.39455 -2.39598,-0.18506 2.18334,-5.46689 4.4808,-17.22335 4.4808,-22.88627 0,-6.49184 0.0308,-6.59969 3.3606,-8.17366 4.48053,-2.11789 10.34898,-7.2784 12.1355,-10.70287 2.52345,-4.83706 1.84463,-9.55298 -1.867,-13.23209 -3.63347,-3.60163 -11.50692,-6.39581 -18.04767,-6.41555 -3.51418,-0.0106 -4.33585,-0.4564 -6.25444,-3.39284 l -2.20928,-3.392852 2.4271,-5.24348 c 5.26073,-11.39027 5.42832,-23.4729 0.43563,-29.76447 -5.54457,-6.98702 -20.58943,-4.85783 -33.13926,4.68829 l -4.79196,3.67043 -5.50765,-1.23376 c -3.33235,-0.73921 -5.68634,-1.83783 -5.97441,-2.77596 -2.5923,-8.44244 -8.18416,-15.72901 -13.28681,-17.33434 -1.06187,-0.33407 -2.11201,-0.49241 -3.14279,-0.4935 z"
         id="path3940"
         style="fill:url(#radialGradient4230);fill-opacity:1;filter:url(#filter4155)" />
      <g
         transform="translate(-557.37244,-348.49966)"
         id="g3950">
        <path
           d="m 275.7957,269.61888 c 6.77477,-0.19084 13.59163,2.36258 18.90625,8.09073 l 3.84375,4.11114 0.1875,10.88631 c 0.10805,5.97647 0.52414,11.58147 0.90625,12.46499 0.5748,1.32906 -1.13835,1.92501 -9.90625,3.48625 -5.82865,1.03787 -15.96572,3.43717 -22.53125,5.32805 -13.00482,3.74539 -12.36125,3.86135 -15.6875,-3.09158 -3.08358,-6.44568 -3.68829,-13.0083 -1.8125,-19.79928 3.66803,-13.27941 14.80247,-21.15856 26.09375,-21.47661 z"
           id="path3883"
           style="fill:#ffffff;fill-opacity:1;stroke:none" />
        <path
           d="m 150.29425,114.72817 a 39.196545,39.135303 0 1 1 -78.393085,0 39.196545,39.135303 0 1 1 78.393085,0 z"
           transform="matrix(1,0,0,1.0093897,229.30147,177.59707)"
           id="path3919"
           style="fill:#ffffff;fill-opacity:1;stroke:none" />
        <path
           d="m 411.79218,499.07346 c -9.69002,-1.89479 -17.31119,-4.99036 -21.67255,-8.80299 -2.3801,-2.08063 -6.52562,-4.61485 -9.21228,-5.63159 -6.72484,-2.54495 -15.86735,-8.61496 -18.46025,-12.25635 -1.1852,-1.66447 -2.15492,-4.41543 -2.15492,-6.11324 0,-2.81516 5.06529,-14.63446 14.94573,-34.87422 l 3.75332,-7.68856 -5.59952,-6.52219 c -3.07974,-3.5872 -6.50566,-7.77505 -7.61315,-9.30633 l -2.01361,-2.78414 -5.78055,5.59891 c -6.99736,6.77747 -16.29172,11.47029 -22.71971,11.47141 -5.97905,10e-4 -8.80331,-2.08889 -9.60595,-7.10834 -0.50782,-3.17575 -0.97213,-3.86003 -2.2531,-3.32053 -25.1106,10.57564 -52.52993,4.71988 -74.8022,-15.97501 -16.48318,-15.31581 -25.36984,-33.58735 -23.95793,-49.25904 1.08179,-12.0074 6.92524,-19.67247 19.64403,-25.76778 l 6.80096,-3.25928 -1.86717,-2.949 c -1.02695,-1.62195 -2.59841,-5.80327 -3.49213,-9.29182 -5.08199,-19.83697 9.98476,-40.06338 29.8485,-40.0702 5.06349,-0.002 5.29112,-0.12626 7.96354,-4.35653 1.51308,-2.39511 5.38433,-7.23181 8.60278,-10.74821 l 5.85171,-6.39347 -0.47091,-8.07121 c -0.7395,-12.67473 2.21685,-16.43634 11.89727,-15.13793 2.20611,0.2959 5.80785,1.72704 8.00387,3.18029 l 3.99276,2.64229 6.04816,-2.30672 c 3.32649,-1.2687 6.16492,-2.75672 6.30764,-3.30672 4.26921,-16.45292 11.96305,-24.7145 20.49443,-22.00674 5.12452,1.62646 10.73823,9.0214 13.34164,17.57497 0.2893,0.95048 2.65249,2.05502 5.99911,2.80396 l 5.52179,1.23573 4.82935,-3.70595 c 12.6036,-9.67177 27.704,-11.8263 33.27233,-4.74732 5.01409,6.37439 4.83027,18.608 -0.45301,30.1482 l -2.43239,5.31305 2.2212,3.42967 c 1.92681,2.97509 2.76046,3.43131 6.28971,3.44205 6.56877,0.02 14.47981,2.86069 18.12885,6.50973 3.72753,3.72753 4.38799,8.50315 1.85373,13.40387 -1.79418,3.46955 -7.66784,8.70995 -12.16757,10.85572 -3.34409,1.59469 -3.38351,1.69102 -3.38351,8.26831 0,5.73745 -2.3178,17.65713 -4.5105,23.19597 -0.63357,1.60041 -0.46349,1.61252 2.4232,0.17244 4.01803,-2.00445 7.73184,-1.17057 14.21389,3.19153 6.06999,4.0848 6.87341,4.18798 6.87341,0.88269 0,-3.06704 2.47711,-9.23261 4.69313,-11.68128 3.96303,-4.37911 12.2994,-0.64189 16.37104,7.33919 1.08706,2.13082 2.22155,3.87421 2.52108,3.87421 0.29953,0 2.69928,-2.21213 5.33278,-4.91585 10.87896,-11.16901 20.76822,-8.20599 21.36012,6.39992 0.24055,5.93606 1.81109,7.65013 4.653,5.07824 0.90306,-0.81726 3.80905,-2.44455 6.45777,-3.6162 9.26203,-4.09703 14.57035,-0.56181 14.64652,9.75423 0.0344,4.66013 0.0768,4.72698 1.45666,2.29966 0.78168,-1.375 2.17177,-5.81136 3.0891,-9.85858 1.64813,-7.27147 1.63311,-9.45706 -0.19064,-27.73108 -0.78667,-7.88251 1.09906,-11.82155 6.92576,-14.46696 5.1331,-2.33051 9.41303,-2.4356 14.60399,-0.35859 5.02596,2.01099 6.08431,3.69113 10.54065,16.73326 5.65054,16.53712 7.71693,28.74965 7.72952,45.68195 0.0191,25.66082 -4.64037,40.39136 -21.0347,66.5 -1.11968,1.78314 -0.13903,3.684 9.04418,17.53086 16.69708,25.17662 17.469,27.94736 9.9458,35.69951 -10.72775,11.05421 -37.8234,21.44304 -48.80366,18.71197 -4.76217,-1.18448 -6.91354,-4.80013 -11.94505,-20.0752 l -3.66709,-11.13287 -5.11498,2.34055 c -9.63617,4.40937 -17.24331,5.86021 -30.21916,5.76342 l -12.10417,-0.0903 -0.69371,14.12602 c -0.92234,18.78177 -1.36085,20.58345 -5.61449,23.06771 -2.9121,1.70075 -5.47735,2.04809 -16.46646,2.22956 -7.15935,0.11823 -15.26699,-0.225 -18.01699,-0.76274 z m 14.945,-5.1585 c -0.98529,-3.21393 -2.18101,-4.46232 -5.32322,-5.5577 -3.22479,-1.12417 -8.7825,0.75997 -9.76065,3.309 -0.84424,2.20004 -0.44114,2.41932 6.23951,3.39406 9.59819,1.40044 9.6238,1.39712 8.84436,-1.14536 z m 10.805,0.75981 c 4.36439,-0.69881 4.84939,-2.58347 1.17137,-4.55189 -2.21514,-1.18551 -2.95517,-1.16938 -5.25,0.11444 -3.17587,1.77671 -4.32792,5.98182 -1.48069,5.40465 0.99513,-0.20172 3.49682,-0.63696 5.55932,-0.9672 z m 9.80843,-1.61898 c 0.55158,-1.03064 1.19141,-5.59019 1.42186,-10.13236 l 0.41898,-8.25847 -1.02084,8.5 c -0.76515,6.37102 -1.56067,9.07746 -3.17611,10.80552 -1.74722,1.86902 -1.82314,2.17807 -0.40101,1.63235 0.96484,-0.37024 2.20554,-1.51641 2.75712,-2.54704 z m -40.05843,-2.73584 c 0,-2.94634 -3.40043,-5.33611 -7.07945,-4.97532 -4.73597,0.46443 -4.62574,2.26228 0.28782,4.69444 5.26771,2.60746 6.79163,2.67049 6.79163,0.28088 z m 39.2408,-16.93454 c 0.29306,-9.36126 -0.50478,-10.6526 -5.9908,-9.69633 -1.7875,0.31158 -3.25,0.19477 -3.25,-0.25957 0,-0.45434 -1.275,-1.30733 -2.83333,-1.89554 -3.33436,-1.25858 -3.96455,-4.3319 -0.75,-3.65759 2.07447,0.43516 2.07482,0.43014 0.0833,-1.18075 -1.1,-0.88977 -2.86431,-2.19186 -3.92069,-2.89353 -1.1068,-0.73516 -1.61002,-1.77843 -1.18755,-2.46201 0.53203,-0.86084 1.88185,-0.53035 4.92069,1.20479 2.30315,1.31506 4.75005,2.18006 5.43755,1.92222 0.6875,-0.25784 1.25009,-0.0938 1.25021,0.36453 1.1e-4,0.45833 1.64148,0.82801 3.64749,0.82151 l 3.64728,-0.0118 0.30123,-4.98819 c 0.16567,-2.7435 0.71418,-7.23818 1.2189,-9.98818 0.8583,-4.67657 0.93396,-4.7736 1.16959,-1.5 l 0.25193,3.5 0.67742,-3 c 0.60232,-2.66737 0.75455,-2.39017 1.373,2.5 0.38256,3.025 0.69948,7.13643 0.70426,9.1365 0.009,3.89674 -0.48186,3.59165 8.75869,5.44031 2.0744,0.415 3.25,0.25645 3.25,-0.43833 0,-0.69251 2.35851,-1.01862 6.4829,-0.8964 3.7727,0.11181 6.95904,-0.28402 7.62185,-0.94683 0.62643,-0.62643 1.83295,-0.87265 2.68115,-0.54717 1.10255,0.42309 1.30612,0.20983 0.7141,-0.74808 -0.61208,-0.99036 -0.37512,-1.16606 0.9084,-0.67352 0.95507,0.36649 2.71639,0.12236 3.91404,-0.54252 1.19766,-0.66487 2.51506,-1.11326 2.92756,-0.99641 0.4125,0.11685 0.75,-0.26411 0.75,-0.84657 0,-0.58246 0.43359,-0.79104 0.96353,-0.46352 0.52993,0.32752 1.84243,-0.28342 2.91666,-1.35765 1.07423,-1.07423 2.14064,-1.76564 2.36981,-1.53648 0.22917,0.22917 0.41667,-0.23854 0.41667,-1.03934 0,-0.80081 -0.45148,-1.17699 -1.00328,-0.83596 -0.58341,0.36057 -0.75394,-0.0297 -0.4075,-0.93248 0.32767,-0.8539 -0.46293,-4.98393 -1.7569,-9.17785 -1.29397,-4.19392 -1.97403,-7.39129 -1.51124,-7.10527 0.46279,0.28602 1.02645,-0.035 1.25258,-0.71343 0.35502,-1.06506 1.95954,2.64598 6.74399,15.59802 0.94603,2.56101 1.42658,2.81798 4.37504,2.33952 1.82175,-0.29563 3.94866,-0.13468 4.72646,0.35766 1.49482,0.94622 1.21787,1.05677 -3.31645,1.32386 -0.95185,0.0561 -1.71492,0.55194 -1.6957,1.10194 0.0192,0.55 1.248,0.93118 2.73063,0.84707 2.60789,-0.14794 2.58984,-0.10713 -0.5543,1.25287 -1.7875,0.77319 -3.25,1.65606 -3.25,1.96194 0,0.30589 0.49821,0.24824 1.10713,-0.12809 0.74503,-0.46045 0.88652,0.0108 0.43262,1.44098 -0.43903,1.38326 -0.24369,2.12523 0.55953,2.12523 0.67873,0 0.95997,0.27409 0.62497,0.60908 -0.63099,0.63099 2.92266,10.48144 4.10598,11.38149 0.36837,0.28019 0.79762,1.18443 0.95389,2.00943 0.15627,0.825 0.77296,2.73653 1.37043,4.24785 l 1.08631,2.74786 3.41437,-2.99786 c 3.58274,-3.14569 6.18566,-3.68856 9.41051,-1.96267 1.54579,0.82729 1.93426,0.70678 1.93426,-0.6 0,-0.89935 1.58922,-3.2244 3.53159,-5.16677 3.26068,-3.26068 3.86878,-3.48538 7.92695,-2.92915 4.215,0.57773 4.42119,0.4848 5.02509,-2.26471 0.34635,-1.57694 1.50634,-3.66049 2.57776,-4.63011 2.68472,-2.42964 10.16557,-3.4974 11.85233,-1.69172 3.4236,3.66498 1.52072,-0.89689 -6.07927,-14.57411 -4.58136,-8.2448 -8.73783,-14.73832 -9.23661,-14.43006 -0.51107,0.31586 -0.55453,-0.01 -0.0996,-0.74575 0.50831,-0.82246 0.1244,-1.80554 -1.03662,-2.6545 -1.01409,-0.74158 -1.50405,-1.34831 -1.08873,-1.34831 0.41531,0 -0.24626,-1.7817 -1.47016,-3.95934 -1.2239,-2.17763 -2.63279,-3.70747 -3.13087,-3.39964 -0.49808,0.30782 -0.78558,-0.048 -0.6389,-0.79067 0.14669,-0.74269 -0.73236,-3.26285 -1.95344,-5.60035 -1.22107,-2.3375 -1.98599,-4.30625 -1.69981,-4.375 0.28617,-0.0687 1.06314,-0.18125 1.72658,-0.25 2.10134,-0.21775 10.79199,-11.85315 14.28474,-19.125 5.88695,-12.25653 9.65303,-26.53127 11.05167,-41.88972 0.56886,-6.24661 0.45494,-7.72684 -0.54699,-7.10761 -0.98472,0.60859 -1.11398,-0.22815 -0.5826,-3.77161 0.42569,-2.83873 0.28681,-4.79851 -0.36877,-5.20368 -0.57841,-0.35747 -0.77622,-1.74737 -0.43957,-3.08867 0.37769,-1.50486 0.18034,-2.43871 -0.51538,-2.43871 -0.70328,0 -0.8914,-0.94057 -0.5,-2.5 0.3451,-1.375 0.24117,-2.50202 -0.23095,-2.50448 -0.47213,-0.002 -0.94374,-1.64662 -1.04803,-3.65367 -0.10429,-2.00705 -0.55429,-3.91753 -1,-4.24552 -0.44571,-0.32798 -0.93614,-1.72133 -1.08985,-3.09633 -0.1537,-1.375 -0.69092,-2.64157 -1.19382,-2.81461 -0.5029,-0.17303 -0.66649,-0.96053 -0.36354,-1.75 0.30294,-0.78946 0.0261,-1.43539 -0.6152,-1.43539 -0.6413,0 -0.90699,-0.41909 -0.59042,-0.93132 0.84216,-1.36264 -2.60097,-8.06868 -4.14276,-8.06868 -0.72314,0 -1.31479,-0.47656 -1.31479,-1.05902 0,-0.58246 -0.45,-0.7809 -1,-0.44098 -0.55,0.33992 -1,0.11192 -1,-0.50667 0,-1.70102 -8.85409,-0.43535 -11.08628,1.58475 -2.1193,1.91794 -3.51285,7.64349 -2.32727,9.56181 0.43159,0.69831 0.93222,2.61718 1.11252,4.26414 0.1803,1.64697 0.65929,3.24233 1.06443,3.54523 1.04448,0.78093 0.91951,20.05172 -0.13003,20.05118 -0.47665,-2.4e-4 -0.63128,0.89956 -0.34362,1.99956 0.28766,1.1 0.0848,2 -0.45076,2 -0.53782,0 -0.67179,0.95145 -0.29924,2.12523 0.4539,1.43014 0.31241,1.90143 -0.43262,1.44098 -0.60892,-0.37633 -1.16456,-0.0952 -1.23475,0.62477 -0.0702,0.71996 -0.23741,2.39781 -0.3716,3.72854 -0.13418,1.33074 -0.86425,2.90737 -1.62238,3.50362 -0.75812,0.59625 -1.51837,1.75747 -1.68944,2.58048 -0.17107,0.82301 -1.25164,2.22466 -2.40126,3.11478 l -2.09023,1.6184 2.65126,3.47599 c 2.49463,3.27062 3.39075,5.78721 2.06076,5.78721 -0.32478,0 -3.08623,-2.13217 -6.13657,-4.73815 -3.77194,-3.22247 -6.27944,-4.64204 -7.8387,-4.43771 -4.00304,0.52457 -14.43422,-6.32956 -14.43422,-9.48446 0,-1.79427 -2.51512,-4.49123 -3.38095,-3.62539 -0.34048,0.34047 -0.61905,0.0243 -0.61905,-0.70261 0,-0.93823 -0.57311,-0.803 -1.9755,0.46615 -1.48141,1.34066 -3.04457,1.66408 -6.25,1.29313 -5.39374,-0.62419 -13.52916,-4.42259 -14.23492,-6.64625 -0.64247,-2.02426 -4.67581,-2.08646 -7.05867,-0.10886 -2.56074,2.12522 -13.1637,2.5812 -15.28935,0.65751 -1.95917,-1.77302 -3.34852,-1.2057 -5.07464,2.07215 -1.63563,3.10604 -11.03892,9.25449 -14.15357,9.25449 -1.40984,0 -3.13364,-0.5625 -3.83067,-1.25 -1.01491,-1.00104 -1.50287,-0.93891 -2.45,0.31197 -0.65047,0.85909 -2.03214,1.88124 -3.07037,2.27145 -1.6496,0.62 -1.81333,1.42997 -1.2981,6.422 0.32427,3.14188 1.06403,5.87066 1.64392,6.06396 0.57988,0.19329 0.82952,0.7152 0.55474,1.1598 -0.27478,0.44459 0.18674,2.45097 1.02558,4.4586 1.6988,4.06581 1.12674,6.35917 -1.12094,4.49376 -3.53937,-2.93742 -8.98416,-28.94194 -7.73267,-36.93154 0.87751,-5.60212 2.18417,-10.69811 3.94223,-15.37482 0.80114,-2.13115 1.2167,-4.11475 0.92345,-4.40799 -0.29324,-0.29324 -0.0787,-1.08075 0.47673,-1.75002 0.55544,-0.66927 1.2944,-5.54817 1.64214,-10.84201 0.63554,-9.67509 0.46608,-10.24998 -2.87635,-9.75793 -0.9043,0.13313 -2.78017,-6.56845 -2.78746,-9.9583 -0.003,-1.42509 -0.67571,-4.80009 -1.49476,-7.5 -0.81904,-2.69991 -1.49404,-6.05643 -1.5,-7.45893 -0.006,-1.4025 -0.55082,-3.09 -1.21082,-3.75 -0.66,-0.66 -0.79899,-1.2 -0.30887,-1.2 0.49012,0 0.0176,-0.70837 -1.05,-1.57416 -1.06762,-0.86579 -1.26613,-1.24665 -0.44113,-0.84636 0.85683,0.41572 0.64244,-0.13378 -0.5,-1.28155 -1.1,-1.10514 -2.52734,-1.81462 -3.17186,-1.57663 -1.81059,0.66856 -5.31129,-1.51689 -11.38411,-7.10698 -3.05578,-2.81288 -7.78078,-6.69498 -10.5,-8.62689 -3.03389,-2.15547 -5.07136,-4.40654 -5.2736,-5.82645 -0.21639,-1.51925 -0.81738,-2.1267 -1.75,-1.76882 -0.78124,0.29979 -1.42043,0.12331 -1.42043,-0.39216 0,-0.51548 -0.675,-0.67821 -1.5,-0.36163 -0.82629,0.31708 -1.5,0.0297 -1.5,-0.63979 0,-0.78599 -0.85404,-1.00105 -2.41724,-0.60871 -1.4953,0.3753 -2.60939,0.13059 -2.92105,-0.64159 -0.2771,-0.68656 -0.53934,-0.32578 -0.58276,0.80172 -0.1526,3.96239 -1.87612,4.45 -15.72926,4.45 -11.43956,0 -13.38053,-0.2327 -14.20322,-1.70277 -0.79157,-1.41445 -1.21587,-1.48453 -2.50589,-0.41391 -0.85413,0.70887 -2.02268,0.99856 -2.59678,0.64375 -0.57409,-0.35481 -1.0438,-0.18267 -1.0438,0.38252 0,0.5652 -0.675,0.76862 -1.5,0.45203 -0.825,-0.31658 -1.5,-0.0509 -1.5,0.5904 0,0.64131 -0.45,0.8879 -1,0.54798 -0.55,-0.33992 -1,-0.14148 -1,0.44098 0,0.58246 -0.50625,0.94652 -1.125,0.80902 -0.61875,-0.1375 -1.35213,0.37513 -1.62973,1.13919 -0.2776,0.76406 -0.10885,1.14512 0.375,0.84681 0.48385,-0.29831 1.00801,1.28075 1.16479,3.50903 0.31593,4.49011 -1.89729,7.70322 -7.20873,10.46547 -3.89972,2.02807 -10.29133,1.85739 -12.71904,-0.33965 -1.87322,-1.69525 -2.18187,-1.49595 -9.5847,6.18875 -4.20704,4.36722 -8.12693,7.79576 -8.71087,7.61897 -0.59551,-0.18028 -0.52811,0.22159 0.15348,0.9152 0.95555,0.9724 0.84871,1.51122 -0.5,2.5217 -1.54035,1.15406 -1.48583,1.22727 0.5348,0.71816 1.37891,-0.34742 2.25,-0.11174 2.25,0.60876 0,0.6466 0.45,0.89753 1,0.55761 0.55,-0.33992 1,-0.10398 1,0.52432 0,0.62829 0.55353,0.95784 1.23005,0.73233 0.67653,-0.22551 1.91403,0.3207 2.75,1.2138 1.23488,1.31926 1.35196,1.33364 0.62423,0.0767 -0.49264,-0.85092 0.70293,0.25287 2.65683,2.45287 1.9539,2.2 3.89448,3.6625 4.31239,3.25 0.41791,-0.4125 0.20828,-0.75 -0.46585,-0.75 -0.67412,0 -0.94303,-0.45734 -0.59757,-1.01631 0.34547,-0.55897 1.01463,-0.77744 1.48702,-0.48548 0.69516,0.42963 1.64095,-1.31298 2.39963,-4.42129 0.0568,-0.23269 1.22827,-1.61873 2.60327,-3.08009 1.375,-1.46136 3.56062,-4.08029 4.85693,-5.81985 1.29632,-1.73957 2.76199,-2.9125 3.25707,-2.60653 0.49507,0.30597 1.17009,-0.14721 1.50005,-1.00707 0.32996,-0.85988 1.17864,-1.5634 1.88595,-1.5634 0.70731,0 1.56296,-0.72169 1.90144,-1.60376 0.35137,-0.91566 1.25537,-1.35818 2.10699,-1.03138 0.82036,0.3148 1.49157,0.10993 1.49157,-0.45527 0,-0.56519 0.45,-0.74951 1,-0.40959 0.55,0.33992 1,0.1556 1,-0.4096 0,-0.5652 0.675,-0.76861 1.5,-0.45203 0.825,0.31658 1.5,0.0916 1.5,-0.5 0,-0.59158 0.62948,-0.83405 1.39885,-0.53881 0.76937,0.29523 1.68681,0.0708 2.03877,-0.49864 0.35242,-0.57021 1.97038,-0.76932 3.60115,-0.44317 1.8778,0.37556 2.96123,0.18064 2.96123,-0.53275 0,-0.61905 1.57407,-1.125 3.5,-1.125 1.92593,0 3.5,0.50595 3.5,1.125 0,0.70389 1.06836,0.91132 2.85417,0.55416 1.61821,-0.32364 3.41388,-0.053 4.1467,0.625 1.00669,0.93138 1.13803,0.92193 0.5939,-0.0427 -0.46879,-0.83105 -0.18805,-1.04261 0.85329,-0.64301 0.85357,0.32755 1.55194,1.04554 1.55194,1.59554 0,0.55 0.675,0.74098 1.5,0.42439 0.825,-0.31658 1.5,-0.11317 1.5,0.45203 0,0.5652 0.43678,0.75769 0.97063,0.42775 1.21475,-0.75075 7.02937,2.1766 7.02937,3.53891 0,0.55314 0.66722,1.26174 1.48271,1.57468 1.72147,0.66059 9.91999,8.5281 9.97807,9.57521 0.0216,0.38883 0.93922,1.4347 2.03922,2.32416 1.1,0.88946 1.43672,1.3318 0.74828,0.98296 -0.68845,-0.34883 -0.25204,1.06011 0.96981,3.13098 1.22184,2.07088 2.35898,4.66588 2.52697,5.76668 0.168,1.1008 0.80966,2.31307 1.42591,2.69394 0.61626,0.38086 0.84955,1.39849 0.51842,2.26138 -0.33112,0.8629 -0.16063,1.84171 0.37888,2.17514 1.07276,0.663 0.54285,7.4294 -1.32803,16.95781 -0.64795,3.3 -1.07957,6.3375 -0.95916,6.75 0.1204,0.4125 -0.20076,0.75 -0.71369,0.75 -0.83705,0 -1.98263,2.32637 -2.08112,4.22619 -0.0207,0.39941 -1.14265,1.91852 -2.49322,3.37581 -1.35057,1.45729 -2.25652,2.9717 -2.01323,3.36535 0.2433,0.39366 -1.11513,2.22532 -3.01873,4.07036 -1.9036,1.84505 -3.46109,3.00354 -3.46109,2.57443 0,-0.42911 -1.86359,0.69579 -4.14131,2.49978 -2.27772,1.80399 -4.86522,3.39163 -5.75,3.52809 -0.88478,0.13646 -4.08369,0.96201 -7.10869,1.83454 -5.59798,1.61469 -24,1.86966 -24,0.33254 0,-0.40938 -0.675,-0.4853 -1.5,-0.16872 -0.825,0.31659 -1.5,0.13206 -1.5,-0.41006 0,-1.03224 -5.95176,-3.87765 -7.25,-3.46608 -0.4125,0.13077 -0.75,-0.21223 -0.75,-0.76223 0,-0.55 -0.56675,-1 -1.25945,-1 -1.16404,0 -4.12275,-3.63552 -4.20482,-5.16667 -0.0196,-0.36666 -0.44538,-1.04166 -0.94606,-1.5 -0.52889,-0.48416 -0.60891,-0.30957 -0.19098,0.41667 1.24232,2.15878 -0.85052,1.35741 -2.23197,-0.85464 -0.96228,-1.54087 -0.98533,-1.90129 -0.086,-1.34549 0.7935,0.4904 0.97217,0.34467 0.50473,-0.41167 -0.39798,-0.64395 -1.0515,-0.96818 -1.45225,-0.72049 -1.75854,1.08683 -5.6534,-4.71081 -4.50671,-6.70839 0.38181,-0.66512 0.3491,-0.89887 -0.0727,-0.51943 -0.92397,0.8312 -3.53533,-1.3736 -2.88979,-2.43989 0.24971,-0.4125 -0.24752,-0.75 -1.10498,-0.75 -0.85746,0 -1.55902,0.50625 -1.55902,1.125 0,0.72074 -1.09588,0.90582 -3.04971,0.51506 -2.1236,-0.42472 -2.83888,-0.26881 -2.35544,0.51341 0.4922,0.79639 -0.36651,0.92435 -2.95029,0.43963 -2.49396,-0.46787 -3.64456,-0.3169 -3.64456,0.47822 0,0.66961 -0.84742,0.94034 -2,0.63893 -1.1,-0.28766 -2,-0.10657 -2,0.40242 0,0.50899 -1.125,0.64308 -2.5,0.29797 -1.60495,-0.40281 -2.5,-0.2065 -2.5,0.54834 0,0.74382 -0.78079,0.92798 -2.12523,0.50127 -1.56549,-0.49687 -1.91937,-0.34144 -1.34363,0.59014 0.56906,0.92076 0.19549,1.11138 -1.37377,0.70101 -1.18546,-0.31 -2.41192,-0.14855 -2.72547,0.35879 -0.31355,0.50734 -0.95124,0.68687 -1.41708,0.39897 -0.46584,-0.28791 -2.12225,0.002 -3.6809,0.64517 -1.55866,0.64275 -3.17142,1.09597 -3.58392,1.00715 -0.4125,-0.0888 -0.75,0.2744 -0.75,0.80714 0,0.53273 -0.675,0.70959 -1.5,0.39301 -0.825,-0.31659 -1.5,-0.0509 -1.5,0.5904 0,0.6413 -0.46979,0.87566 -1.04397,0.52079 -0.57419,-0.35487 -2.14919,0.0789 -3.5,0.96404 -1.35082,0.88508 -2.45603,1.36473 -2.45603,1.06587 0,-0.82913 -8.39713,3.60973 -9.23468,4.8816 -0.40408,0.61362 -0.74158,0.68989 -0.75,0.1695 -0.008,-0.52039 -1.5728,0.56341 -3.4764,2.40846 -1.9036,1.84504 -3.22704,3.73331 -2.94098,4.19616 0.28605,0.46285 -0.0315,0.84155 -0.70558,0.84155 -0.67413,0 -0.94711,0.27857 -0.60664,0.61905 0.34048,0.34047 -0.0604,1.2985 -0.89084,2.12894 -0.83044,0.83044 -1.27867,2.11245 -0.99606,2.84892 0.28261,0.73647 0.0835,1.60501 -0.44249,1.93008 -1.11993,0.69216 -1.31255,10.47193 -0.20632,10.47529 0.4125,10e-4 0.79668,1.32679 0.85373,2.94562 0.27324,7.7533 15.78097,26.81327 29.25906,35.96121 22.61903,15.35216 51.16011,18.80592 71.0658,8.59968 4.1862,-2.14639 20.51367,-16.47931 17.0714,-14.98597 -0.825,0.3579 -0.375,-0.26261 1,-1.37892 1.375,-1.11631 2.5,-2.52177 2.5,-3.12325 0,-0.60148 0.48895,-1.41469 1.08657,-1.80712 0.59761,-0.39244 2.34532,-2.88082 3.88381,-5.52972 2.05575,-3.53952 3.09255,-4.52088 3.9113,-3.70213 0.81875,0.81875 0.52437,2.19063 -1.11055,5.1754 -1.42625,2.60382 -1.94004,4.65017 -1.43166,5.70213 0.93337,1.93135 0.90447,3.20927 -0.10859,4.80146 -0.40617,0.63837 -0.83493,2.32587 -0.9528,3.75 -0.11786,1.42413 -0.64115,2.58933 -1.16285,2.58933 -0.52171,0 -0.68504,0.26353 -0.36295,0.58561 0.32209,0.32209 -0.23268,1.55959 -1.23282,2.75 -7.13093,8.48756 -10.03055,11.71038 -10.49984,11.67018 -0.29732,-0.0255 -1.77336,0.591 -3.2801,1.36995 -4.47269,2.31226 -8.49495,2.44121 -8.81575,0.28263 -0.43474,-2.92521 -1.12966,-2.96633 -1.84673,-0.10929 -1.05885,4.21877 0.97253,5.73593 7.00969,5.23529 8.34029,-0.69165 23.41327,-9.31054 23.41327,-13.38796 0,-0.76803 0.47656,-1.39641 1.05902,-1.39641 0.58246,0 0.79799,-0.42234 0.47896,-0.93854 -0.31902,-0.5162 0.0557,-1.3037 0.8328,-1.75 0.77706,-0.4463 3.30975,-3.84571 5.6282,-7.55424 3.72097,-5.95197 6.00102,-7.7146 6.00102,-4.63919 0,0.55 -0.51953,0.67892 -1.15451,0.28648 -0.70268,-0.43428 -0.88356,-0.27513 -0.46218,0.40669 0.70934,1.14772 -2.17423,7.60124 -5.51735,12.34802 -1.81284,2.57399 -1.64502,5.84078 0.30005,5.84078 0.52361,0 0.69294,0.41921 0.37628,0.93158 -0.31666,0.51237 0.32892,1.56523 1.43462,2.33969 1.1057,0.77447 1.74919,1.6693 1.42996,1.98852 -0.31922,0.31922 0.57978,1.34058 1.99778,2.26969 1.418,0.92911 2.35275,2.05403 2.07724,2.49983 -0.27552,0.4458 0.74084,1.78437 2.25858,2.97461 1.51774,1.19023 3.21109,2.99961 3.76301,4.02083 1.83804,3.40098 18.85119,17.55517 18.35204,15.26807 -0.0952,-0.43605 0.16559,-1.69282 0.57946,-2.79282 0.41387,-1.1 1.22527,-3.26254 1.80312,-4.80563 1.59607,-4.26219 3.13861,-1.76852 2.14013,3.45973 -0.45648,2.39025 -0.73363,5.1334 -0.61589,6.0959 0.11775,0.9625 -0.23919,1.75 -0.79318,1.75 -0.59019,0 -0.73196,1.09692 -0.34237,2.64915 0.49726,1.98122 0.34898,2.45391 -0.58808,1.87477 -0.91005,-0.56244 -1.07568,-0.21575 -0.60517,1.26669 0.3563,1.12259 0.17217,2.33504 -0.40917,2.69433 -0.58135,0.35929 -0.78591,1.09187 -0.45459,1.62796 0.33132,0.53609 0.0749,1.61029 -0.56978,2.3871 -0.6447,0.77681 -0.85079,1.93241 -0.45797,2.568 0.39281,0.63558 0.094,1.56385 -0.66391,2.06281 -1.12433,0.74013 -1.02065,1.17993 0.56301,2.38819 1.06762,0.81455 2.95356,1.481 4.19098,1.481 4.45949,0 3.27951,1.88378 -2.17284,3.46882 -4.76393,1.38491 -5.4769,1.90026 -4.94546,3.57469 0.37603,1.18476 0.15717,1.95649 -0.55483,1.95649 -0.75484,0 -0.95115,0.89505 -0.54834,2.5 0.3914,1.55943 0.20328,2.5 -0.5,2.5 -0.70328,0 -0.89139,0.94057 -0.5,2.5 0.36183,1.44165 0.19606,2.5 -0.39159,2.5 -0.56048,0 -1.01905,1.14539 -1.01905,2.54531 0,2.40288 0.20985,2.50493 3.75,1.82366 2.0625,-0.39691 4.59591,-0.66586 5.6298,-0.59768 2.35197,0.15511 6.6202,4.07334 6.6202,6.07734 0,1.13137 0.57914,0.95592 2.3566,-0.71392 3.73831,-3.51195 8.45155,-3.77376 12.93781,-0.71866 4.41001,3.00317 5.02965,3.10333 6.70559,1.08395 1.73714,-2.09313 6.34509,-1.86973 10.22583,0.49575 l 3.27417,1.99575 0.7408,-4.74575 c 0.40744,-2.61016 0.85744,-8.47155 1,-13.02531 z M 282.78757,358.15044 c -0.35166,-1.10799 -1.05183,-1.75962 -1.55593,-1.44806 -0.5052,0.31223 -0.62102,-0.20369 -0.25806,-1.14953 0.40628,-1.05877 0.26317,-1.47167 -0.37367,-1.07808 -0.61184,0.37814 -0.93662,-0.26769 -0.79756,-1.58595 0.30402,-2.88207 0.31391,-2.9079 1.92995,-5.0396 1.18306,-1.56057 1.67045,-1.63216 3.46819,-0.50945 1.15043,0.71846 2.09169,1.87304 2.09169,2.56574 0,0.6927 0.37766,1.25945 0.83924,1.25945 1.59481,0 0.45811,6.3094 -1.37867,7.6525 -2.49276,1.82274 -3.21343,1.70151 -3.96518,-0.66702 z m 3.50461,-3.86304 c 0,-1.91583 -2.63939,-4.81638 -3.55214,-3.90363 -0.79338,0.79338 1.38716,5.78119 2.52739,5.78119 0.56361,0 1.02475,-0.8449 1.02475,-1.87756 z m -48.33333,-10.78911 c -1.3694,-1.3694 -0.59916,-6.08444 1.27032,-7.7763 2.63632,-2.38585 4.41443,-1.06413 3.65782,2.71894 -0.89549,4.47745 -3.17192,6.81358 -4.92814,5.05736 z m 3.31802,-5.64235 c 0.008,-0.44496 -0.43468,-0.5309 -0.98468,-0.19098 -0.55,0.33992 -0.99311,1.37898 -0.98469,2.30902 0.0132,1.45727 0.14929,1.48367 0.98469,0.19098 0.53315,-0.825 0.97626,-1.86406 0.98468,-2.30902 z m 151.57201,150.08651 c -0.85618,-1.22237 -1.5567,-3.66137 -1.5567,-5.41999 0,-3.30205 3.62804,-21.06821 7.0502,-34.52411 1.07239,-4.21664 1.9497,-7.81664 1.94957,-8 -1.2e-4,-0.18337 -5.83552,-0.33422 -12.96754,-0.33523 l -12.96731,-0.002 -5.41204,11.50183 c -7.00233,14.88157 -7.00523,14.89331 -4.64075,18.78138 2.33795,3.84446 12.40437,10.50648 19.42133,12.85317 2.73307,0.91402 6.00631,2.92491 7.33889,4.50859 2.85158,3.38891 3.99897,3.798 1.78435,0.63619 z m 127.6933,-6.43977 c -0.6875,-0.27741 -1.8125,-0.27741 -2.5,0 -0.6875,0.27741 -0.125,0.50439 1.25,0.50439 1.375,0 1.9375,-0.22698 1.25,-0.50439 z m -5.93912,-2.58772 c -1.12076,-1.2375 -2.53551,-3.15 -3.1439,-4.25 -0.60839,-1.1 -1.11816,-1.55 -1.13283,-1 -0.0465,1.74424 3.88694,7.5 5.12547,7.5 0.6672,0 0.29473,-0.98743 -0.84874,-2.25 z m 11.56412,-0.375 c 3.48609,-0.69722 3.71599,-1.18451 1.79701,-3.80887 -1.86536,-2.55104 -6.63623,-2.32854 -8.85622,0.41303 -3.00379,3.70953 -0.50925,4.90953 7.05921,3.39584 z m 17.375,-5.94177 c 4.30786,-2.07197 4.41584,-2.38938 1.87884,-5.52245 -2.31625,-2.86044 -8.10909,-3.14361 -10.98917,-0.53718 -2.27785,2.06143 -3.47481,5.99509 -2.63213,8.65017 0.53678,1.69124 0.91277,1.73798 4.2904,0.5334 2.03613,-0.72615 5.38956,-2.13192 7.45206,-3.12394 z m -34.12793,-3.10823 c -1.17884,-2.02721 -1.46351,-1.37835 -0.49853,1.13634 0.34294,0.8937 0.83419,1.41426 1.09166,1.15679 0.25747,-0.25747 -0.009,-1.28938 -0.59313,-2.29313 z m 47.23714,-5.40999 c 2.55243,-2.24674 4.64079,-4.70591 4.64079,-5.46481 0,-1.76702 -3.13895,-3.4502 -6.43426,-3.4502 -5.13488,0 -8.18579,6.10438 -5.53056,11.06574 1.43293,2.67746 2.04217,2.49855 7.32403,-2.15073 z m -106.6761,-2.10251 c -0.31922,-0.79773 -0.55618,-0.56078 -0.60416,0.60417 -0.0434,1.05416 0.19292,1.64479 0.52522,1.3125 0.33229,-0.33229 0.36781,-1.1948 0.0789,-1.91667 z m -6.43311,-0.47478 c -0.6875,-0.27741 -1.8125,-0.27741 -2.5,0 -0.6875,0.27741 -0.125,0.50439 1.25,0.50439 1.375,0 1.9375,-0.22698 1.25,-0.50439 z m 122.69802,-3.69005 c 0.55163,-1.46647 0.17484,-3.41639 -1.18793,-6.14767 -2.65347,-5.31814 -10.83236,-18.5 -11.47861,-18.5 -0.28132,0 0.16022,1.02517 0.98121,2.27816 0.82098,1.25298 3.39239,5.78036 5.71424,10.06083 3.35028,6.17645 4.14566,8.57829 3.8539,11.63772 -0.38329,4.01914 0.72556,4.37054 2.11719,0.67096 z m -65.03135,-9.28312 c 1.37232,-1.20066 -1.88254,-0.0856 -3.47554,1.19062 -1.83031,1.46637 -1.7984,1.48719 0.55887,0.36454 1.375,-0.65484 2.6875,-1.35466 2.91667,-1.55516 z m -105.53181,-10.31373 2.88486,-0.0508 -2.88486,-2.1964 c -1.58667,-1.20801 -5.3886,-4.32998 -8.44873,-6.93769 l -5.56387,-4.7413 -2.8305,5.95999 c -1.55678,3.278 -2.5455,6.24499 -2.19717,6.59332 1.14226,1.14227 8.07399,2.16275 12.15541,1.78951 2.2,-0.20119 5.29819,-0.38866 6.88486,-0.41661 z m -14.38486,-16.37651 c 0,-0.17912 -1.2375,-1.41662 -2.75,-2.75 l -2.75,-2.42431 2.42431,2.75 c 2.26589,2.57029 3.07569,3.20859 3.07569,2.42431 z m -42.34066,-2.44261 c 0.63764,-0.40572 -0.85107,-0.81548 -3.30824,-0.91058 -2.45717,-0.0951 -5.02508,-0.54375 -5.70647,-0.99701 -0.68139,-0.45326 -0.38033,-0.0366 0.66902,0.92589 1.95352,1.79183 6.2738,2.30002 8.34569,0.9817 z m -0.74267,-2.59016 c -0.22917,-0.19715 -2.21667,-0.6344 -4.41667,-0.97166 -2.72397,-0.41758 -3.52149,-0.30812 -2.5,0.34315 1.36629,0.87109 7.88744,1.46367 6.91667,0.62851 z m -27.08736,-3.80409 c 2.93111,-0.55669 5.14481,-1.19667 4.91931,-1.42216 -0.22549,-0.22549 -3.07368,0.0897 -6.3293,0.7005 -29.4377,5.52263 -65.03516,-16.47294 -78.22822,-48.337 -2.13584,-5.1585 -2.60784,-7.91757 -2.64539,-15.46355 -0.0315,-6.33057 -0.31997,-8.50584 -0.92829,-7 -0.48543,1.20162 -0.86155,5.10976 -0.83583,8.68476 0.16656,23.15144 25.3633,52.41464 52.87966,61.4138 10.17764,3.32857 19.01333,3.73216 31.16806,1.42365 z m -2.82235,-2.58745 c 0.004,-0.4125 1.91632,-0.83459 4.25,-0.93797 2.33367,-0.10339 5.36804,-0.6084 6.74304,-1.12226 1.67202,-0.62485 -1.3786,-0.76537 -9.21107,-0.42426 -7.31571,0.3186 -14.0714,0.0484 -17.99999,-0.71987 -19.66798,-3.84637 -38.62492,-16.00175 -53.09589,-34.04564 l -2.80696,-3.5 2.30696,4.5 c 1.26883,2.475 6.35695,8.59511 11.30695,13.60025 11.98384,12.11732 23.40899,18.7078 38,21.9199 6.53801,1.43929 20.49577,1.93605 20.50696,0.72985 z m 48.49304,-1.25 c 0.99549,-1.1 1.58498,-2 1.30998,-2 -0.275,0 -1.31449,0.9 -2.30998,2 -0.99549,1.1 -1.58498,2 -1.30998,2 0.275,0 1.31449,-0.9 2.30998,-2 z m 190.09719,-5.04417 c 6.24917,-9.66022 11.00408,-20.44316 14.04534,-31.85129 2.07551,-7.78546 2.62594,-12.44551 2.90621,-24.60454 l 0.34576,-15 -1.35092,14.67316 c -1.59421,17.3157 -1.84106,18.6195 -5.73336,30.28219 -4.38947,13.1524 -14.34035,31.54465 -17.06681,31.54465 -0.53539,0 -0.15024,-1.2375 0.85588,-2.75 4.75784,-7.15244 10.68328,-18.43755 13.50408,-25.71878 3.17862,-8.20485 6.0664,-18.69478 5.34508,-19.4161 -0.22075,-0.22076 -0.58933,0.22553 -0.81905,0.99175 -5.93922,19.80982 -11.99559,31.56346 -20.45659,39.70019 -2.30895,2.22047 -2.32912,2.35816 -0.53748,3.66824 1.02384,0.74865 1.52864,1.69407 1.12177,2.10093 -0.82512,0.82512 0.9855,3.42377 2.38552,3.42377 0.49375,0 2.94831,-3.16988 5.45457,-7.04417 z m -207.28145,2.89752 c 2.79519,-1.46737 8.78579,-6.63239 10.53157,-9.08019 1.08354,-1.51927 1.1097,-2.46273 0.13363,-4.81917 l -1.21368,-2.93008 -5.13363,4.64634 c -2.8235,2.55549 -6.66983,5.56304 -8.54741,6.68345 -1.87758,1.12041 -2.89008,2.21168 -2.25,2.42504 0.64008,0.21336 1.16378,1.25043 1.16378,2.30459 0,2.17121 2.07425,2.47167 5.31574,0.77002 z m -10.82282,-0.8419 c 0.35034,-0.56686 -0.0511,-0.7345 -0.94098,-0.39301 -1.73242,0.66479 -2.04939,1.38156 -0.61096,1.38156 0.51754,0 1.21592,-0.44485 1.55194,-0.98855 z m 27.00567,-18.34051 c 1.75733,-5.83915 0.51815,-6.69274 -3.00685,-2.07122 -2.38583,3.12798 -2.58331,3.90388 -1.56338,6.14238 1.46871,3.22348 2.70678,2.12061 4.57023,-4.07116 z m 160.06455,-44.12696 c 0.88509,-1.35082 1.31891,-2.92582 0.96404,-3.5 -0.35487,-0.57419 -0.22573,-1.04398 0.28698,-1.04398 1.57695,0 1.23158,-8.57232 -0.42757,-10.61256 -0.8442,-1.03809 -1.2734,-1.36285 -0.95379,-0.72168 0.44249,0.88768 -0.17345,0.88768 -2.58215,0 -2.43254,-0.89647 -3.25757,-0.88999 -3.57156,0.0281 -0.22457,0.65661 -1.12805,0.91763 -2.00774,0.58006 -1.17738,-0.4518 -1.38191,-0.23906 -0.77507,0.80618 0.4534,0.78097 0.46806,1.09827 0.0326,0.70512 -1.1308,-1.02084 -4.25912,0.87354 -6.11177,3.70104 -2.25218,3.43726 -0.99825,6.18926 4.37183,9.59486 5.647,3.58122 8.6466,3.71009 10.77424,0.4629 z m -94.24279,-10.90606 c -0.86379,-4.63472 -2.31803,-5.62411 -2.334,-1.58792 -0.008,1.8975 -0.30316,4.575 -0.657,5.95 -0.63637,2.47295 -0.6205,2.47985 1.46624,0.63792 1.62238,-1.43204 1.97452,-2.58676 1.52476,-5 z m 16.16023,2.83135 c 5.29786,-3.389 7.01921,-6.42432 4.51942,-7.96927 -0.55,-0.33992 -1,-1.06803 -1,-1.61803 0,-0.55 0.45,-0.72189 1,-0.38197 1.79002,1.10629 1.05468,-0.14337 -1.23277,-2.09501 -1.81765,-1.55082 -1.98081,-1.57963 -0.87755,-0.15499 1.64597,2.12546 -0.13377,2.36574 -1.88586,0.2546 -1.95663,-2.35759 -8.33077,-3.93517 -10.72425,-2.65422 -2.62477,1.40474 -3.5647,6.36933 -2.18388,11.53503 2.09175,7.82528 4.1656,8.34168 12.38489,3.08386 z m 52.34604,-2.06039 c 1.98877,-1.39298 2.24706,-2.35802 2.07427,-7.75 -0.23184,-7.23444 -1.40044,-11.08621 -3.05353,-10.06455 -0.71712,0.44321 -0.88534,0.27615 -0.44285,-0.43982 1.02192,-1.6535 -3.8718,-1.48336 -7.20417,0.25048 -5.89111,3.06514 -10.09408,9.99559 -7.88625,13.00396 0.96394,1.31345 11.75023,6.47898 13.7134,6.56731 0.29013,0.0131 1.54973,-0.69226 2.79913,-1.56738 z m 7.73068,-2.99064 c -2.1928,-1.60341 -3.5573,-1.82246 -3.5573,-0.57105 0,1.00867 4.28171,3.1046 4.99843,2.44676 0.27413,-0.25161 -0.37438,-1.09568 -1.44113,-1.87571 z m -150.44379,0.56777 c 7.35913,-1.38532 14.53145,-5.08489 19.77923,-10.20235 9.11636,-8.88998 12.58434,-17.67768 11.89872,-30.15075 -1.91821,-34.89645 -46.01883,-49.37903 -68.14386,-22.37834 -6.45593,7.87861 -8.1476,12.91264 -8.1476,24.24543 0,8.90003 0.31562,10.68326 2.86933,16.2116 3.02772,6.55447 11.44724,15.59083 17.38988,18.66388 3.84948,1.99065 12.73545,4.46758 16.3543,4.55871 1.43743,0.0362 5.03743,-0.39048 8,-0.94818 z m -5.74943,-29.1556 c -2.59835,-1.25814 -4.36408,-4.88113 -4.36408,-8.95439 0,-4.36598 4.75802,-8.87602 9.36406,-8.87602 4.36347,0 5.73502,1.85828 2.80663,3.80266 -4.10059,2.72269 -1.26084,8.98375 2.89694,6.38718 1.04788,-0.65441 2.36134,-1.18984 2.9188,-1.18984 2.06625,0 0.92028,4.24714 -1.90951,7.07692 -3.11149,3.11149 -7.53928,3.77436 -11.71284,1.75349 z m 8.77514,-2.79714 2.36078,-1.96673 -2.62756,-0.0333 c -3.4457,-0.0436 -5.28669,-2.40281 -5.1671,-6.62152 0.1161,-4.09593 -0.85812,-4.30428 -3.63276,-0.77689 -2.76527,3.51547 -2.61842,4.97315 0.8505,8.44206 3.43758,3.43759 5.01707,3.62144 8.21614,0.95635 z m 212.56804,27.72839 c -0.23919,-1.24391 -0.44398,-0.46166 -0.45508,1.73834 -0.0111,2.2 0.18461,3.21775 0.4349,2.26166 0.25029,-0.95609 0.25937,-2.75609 0.0202,-4 z m -146.02415,2.05084 c -0.31922,-0.79773 -0.55618,-0.56078 -0.60416,0.60417 -0.0434,1.05416 0.19292,1.64479 0.52522,1.3125 0.33229,-0.3323 0.36781,-1.1948 0.0789,-1.91667 z m -53.12424,-0.2807 c 1.06762,-0.8075 1.49113,-1.46819 0.94113,-1.46819 -0.55,0 -1.87351,0.66069 -2.94113,1.46819 -1.06762,0.80751 -1.49113,1.4682 -0.94113,1.4682 0.55,0 1.87351,-0.66069 2.94113,-1.4682 z m 99.69113,-1.27565 c 0.9625,-0.86137 1.74832,-2.50888 1.74626,-3.66114 -0.005,-2.85642 -3.3513,-8.12631 -6.44852,-10.15569 -2.38161,-1.56049 -2.71587,-1.55918 -5.12616,0.0201 -1.57079,1.02922 -2.35686,2.26685 -2.01146,3.16695 0.31183,0.81262 0.17329,1.23418 -0.30788,0.93681 -2.34032,-1.4464 -2.74708,8.64911 -0.44139,10.9548 2.01362,2.01362 9.80135,1.23303 12.58915,-1.26183 z m 67.57137,-12.25615 c 0.027,-11.07425 -0.55297,-9.19172 -1.07829,3.5 -0.22766,5.5 -0.0828,8.875 0.32182,7.5 0.40466,-1.375 0.74507,-6.325 0.75647,-11 z m -161.11942,9 c 0.33872,0.275 2.74984,-2.27996 5.35804,-5.67768 6.70309,-8.73215 11.17393,-21.32232 7.57168,-21.32232 -0.83639,0 -1.57338,1.52878 -1.89579,3.9325 -0.79925,5.95886 -4.91389,14.07523 -10.09016,19.90343 -2.55515,2.87695 -4.63141,5.55331 -4.61392,5.94745 0.0175,0.39414 0.71187,-0.18338 1.54305,-1.28338 0.83118,-1.1 1.78838,-1.775 2.1271,-1.5 z m 101.90985,-0.75 c 0.95924,-1.53599 0.68293,-1.75 -2.25945,-1.75 -3.89484,0 -3.80586,-0.0964 -1.78092,1.92857 2.00721,2.00721 2.69429,1.97684 4.04037,-0.17857 z m 43.1382,1.06067 c -0.9625,-0.25152 -2.5375,-0.25152 -3.5,0 -0.9625,0.25153 -0.175,0.45733 1.75,0.45733 1.925,0 2.7125,-0.2058 1.75,-0.45733 z m -97.06689,-2.49817 c -0.31922,-0.79773 -0.55618,-0.56078 -0.60416,0.60417 -0.0434,1.05416 0.19292,1.64479 0.52522,1.3125 0.33229,-0.3323 0.36781,-1.1948 0.0789,-1.91667 z m -41.55555,-0.5625 c 1.24387,-1.58606 1.2085,-1.62143 -0.37756,-0.37756 -0.9625,0.75485 -1.75,1.54235 -1.75,1.75 0,0.82304 0.82119,0.29331 2.12756,-1.37244 z m 185.53472,-1.5 c -0.27741,-0.6875 -0.50439,-0.125 -0.50439,1.25 0,1.375 0.22698,1.9375 0.50439,1.25 0.27741,-0.6875 0.27741,-1.8125 0,-2.5 z m -134.13582,-1.55687 c -0.30789,-0.30789 -1.11479,-6.4e-4 -1.79313,0.68278 -0.98026,0.98762 -0.8654,1.10248 0.5598,0.5598 0.98622,-0.37553 1.54122,-0.93469 1.23333,-1.24258 z m -5.60713,-8.63981 c 1.22827,-4.13746 2.0459,-8.31705 1.81695,-9.28798 -0.29119,-1.23489 -0.62166,-0.8639 -1.09979,1.23466 -0.37594,1.65 -1.5057,6.0225 -2.51057,9.71666 -2.47849,9.1115 -0.99752,7.73793 1.79341,-1.66334 z m 138.76378,6.25918 c -0.31922,-0.79773 -0.55618,-0.56078 -0.60416,0.60417 -0.0434,1.05416 0.19293,1.64479 0.52522,1.3125 0.33229,-0.3323 0.36781,-1.1948 0.0789,-1.91667 z m -271.23833,-8.46684 c 8.7679,-1.48343 10.4776,-2.0565 9.9028,-3.31932 -0.38211,-0.83949 -0.78315,-6.17248 -0.8912,-11.85109 l -0.19646,-10.32474 -3.83919,-3.93169 c -14.17231,-14.51376 -39.14231,-7.44387 -45.01116,12.74425 -1.87579,6.45252 -1.27689,12.68903 1.80669,18.81346 3.32625,6.60641 2.68882,6.48745 15.69364,2.92872 6.56553,-1.79664 16.70623,-4.07345 22.53488,-5.05959 z m -7.36581,-2.58624 c -5.63193,-2.92973 -4.53385,-11.34165 1.71404,-13.13055 4.37777,-1.25345 6.34637,0.45465 3.7854,3.28449 -2.37454,2.62384 -1.14245,4.36944 2.51679,3.56573 3.43659,-0.7548 3.92526,1.09337 1.1548,4.36748 -2.27624,2.69005 -6.13129,3.49412 -9.17103,1.91285 z m 4.17103,-3.43384 c -1.48468,-1.03567 -2.25,-2.59011 -2.25,-4.57 0,-2.5537 -0.22335,-2.81511 -1.5,-1.75558 -1.80183,1.49539 -1.96251,5.13749 -0.3,6.8 0.66,0.66 2.3475,1.1764 3.75,1.14755 l 2.55,-0.0524 -2.25,-1.56952 z m 204.75,11.17442 c -0.6862,-0.82682 -2.6485,-1.43276 -4.37244,-1.35017 l -3.12756,0.14983 3,0.42712 c 1.65,0.23491 3.4275,0.84249 3.95,1.35017 1.52005,1.47693 1.91272,1.06503 0.55,-0.57695 z m -33.78263,-2.80642 c -1.38442,-0.62369 -2.64191,-0.66735 -3.1957,-0.11095 -0.55293,0.55552 0.34743,0.96113 2.28263,1.02832 2.97515,0.10329 3.03817,0.04 0.91307,-0.91737 z m -32.21737,-18.19358 c 0,-3.66667 -0.4359,-6.5 -1,-6.5 -1.10062,0 -1.40499,11.26168 -0.33333,12.33333 1.21789,1.21789 1.33333,0.71282 1.33333,-5.83333 z m -40,0.44223 c 0,-9.93774 -5.6416,-22.6478 -13.47292,-30.35339 -11.31737,-11.13566 -30.77723,-15.15425 -43.84371,-9.05401 -2.30513,1.07618 -2.49366,1.30906 -0.68337,0.84412 1.375,-0.35314 6.6441,-0.85068 11.70911,-1.10565 7.5858,-0.38186 10.31803,-0.0898 15.5,1.65698 15.44223,5.20532 25.64242,18.40367 27.38761,35.43769 0.50119,4.89195 0.99698,6.34144 2.03306,5.94386 0.75362,-0.2892 1.37022,-1.80551 1.37022,-3.3696 z m 166,-4.31979 c 0,-0.20765 -0.7875,-0.99515 -1.75,-1.75 -1.58606,-1.24387 -1.62143,-1.2085 -0.37756,0.37756 1.30637,1.66575 2.12756,2.19548 2.12756,1.37244 z m -122,-6.95943 c 6.76294,-4.09882 10.65942,-9.89954 9.56875,-14.24512 -0.97827,-3.89771 -13.51916,-8.10891 -20.59048,-6.91422 -4.59295,0.77597 -4.88331,1.94159 -2.46745,9.90526 0.81905,2.69991 1.48918,6.217 1.48918,7.81574 0,5.04245 1.67291,7.0022 5.31953,6.23164 1.74926,-0.36963 4.75547,-1.62662 6.68047,-2.7933 z m -131.15385,-5.29155 c -4.18385,-3.49551 -9.04247,-6.41039 -10.54649,-6.32726 -0.43981,0.0243 0.88521,0.9337 2.9445,2.02089 2.05928,1.08718 5.19898,3.50569 6.97711,5.37446 1.77812,1.86877 3.58695,3.17898 4.01962,2.91157 0.43267,-0.2674 -1.09496,-2.05825 -3.39474,-3.97966 z m 143.81613,-8.62146 c -0.27741,-0.6875 -0.50439,-0.125 -0.50439,1.25 0,1.375 0.22698,1.9375 0.50439,1.25 0.27741,-0.6875 0.27741,-1.8125 0,-2.5 z m -157.16228,1.25 c -1.1,-0.47269 -4.475,-0.81541 -7.5,-0.76161 l -5.5,0.0978 6,0.66378 c 8.66067,0.95814 9.22971,0.95814 7,0 z m 131.5,-12.52144 c 0,-1.46403 -5.36938,-8.36831 -6.13834,-7.89306 -0.9501,0.58719 -0.65211,1.2993 2.3704,5.6645 1.6871,2.43655 3.76794,3.66727 3.76794,2.22856 z m -120.43709,-5.72856 2.93709,-3.25 -3.25,2.93709 c -3.02945,2.73778 -3.70965,3.56291 -2.93709,3.56291 0.1721,0 1.6346,-1.4625 3.25,-3.25 z m 112.27192,-3.07419 c 1.20091,-1.2783 1.84185,-2.70045 1.42432,-3.16032 -0.41753,-0.45988 -0.19665,-0.51244 0.49085,-0.1168 1.2239,0.70432 1.68596,-0.44906 1.3016,-3.24904 -0.10195,-0.7427 0.18223,-1.12722 0.63152,-0.85449 1.91105,1.16006 2.18495,-16.58171 0.32103,-20.79516 -0.72991,-1.65 -1.25984,-3.32131 -1.17763,-3.71401 0.0822,-0.39271 -0.59393,-0.42874 -1.50256,-0.0801 -1.05759,0.40584 -1.40817,0.23935 -0.97428,-0.46269 0.46902,-0.7589 -1.10693,-1.00775 -5.11699,-0.80798 -7.34358,0.36582 -16.23776,4.58447 -20.72988,9.8325 -4.29168,5.01386 -3.71907,6.83178 3.74933,11.90347 3.29571,2.23808 8.41699,6.26513 11.38062,8.949 2.96363,2.68388 5.98021,4.87978 6.70351,4.87978 0.72331,0 2.29766,-1.04589 3.49856,-2.32419 z m -89.66714,-1.97321 c 5.13108,-3.9136 5.74766,-5.97325 2.92934,-9.78523 -2.37748,-3.21572 -2.67905,-4.38507 -0.84703,-3.28443 0.84936,0.51027 0.81011,0.20868 -0.12244,-0.94099 -1.48582,-1.83172 -2.63355,-2.31968 -1.62756,-0.69195 0.9498,1.53681 -0.63676,1.1862 -2.5767,-0.56941 -0.95379,-0.86318 -3.76222,-2.17976 -6.24095,-2.92575 -4.02766,-1.21215 -4.6621,-1.17819 -5.9679,0.31941 -1.63518,1.87537 -3.09098,8.46588 -2.09096,9.4659 0.35593,0.35593 0.79505,2.29541 0.97582,4.30996 0.72508,8.08053 7.88064,9.96613 15.56838,4.10249 z m -15.57045,-19.81005 c 0.94201,-1.04091 2.88049,-1.92808 4.30775,-1.9715 1.42725,-0.0434 2.0132,-0.31236 1.3021,-0.59764 -3.88367,-1.55805 -9.35561,3.46744 -9.12113,8.37693 0.0505,1.05648 0.43956,0.61966 0.94225,-1.05779 0.47096,-1.5716 1.62703,-3.7091 2.56903,-4.75 z m 114.325,-8.08029 c -1.96599,-4.7463 -5.4881,-6.82943 -11.3071,-6.68751 l -5.11514,0.12476 5.26867,0.76829 c 2.89776,0.42256 6.00497,1.37892 6.9049,2.12524 2.44822,2.03034 4.30357,7.20184 4.51141,12.57484 l 0.18498,4.78212 0.37262,-5.40385 c 0.20493,-2.97212 -0.16422,-6.69987 -0.82034,-8.28389 z m -53.10649,10.79903 c 1.21934,-1.63178 1.22905,-5.61129 0.0137,-5.61129 -0.62571,0 -0.78559,-1.03856 -0.39777,-2.58379 0.35667,-1.42109 0.25461,-2.34036 -0.2268,-2.04283 -1.19121,0.73621 -4.40851,-6.21319 -3.56112,-7.69206 0.3723,-0.64973 0.3173,-0.85637 -0.12221,-0.45921 -0.43951,0.39717 -2.12118,-0.39033 -3.73705,-1.75 -1.61587,-1.35966 -3.54161,-2.47211 -4.27943,-2.47211 -0.73782,0 -1.97415,-0.24278 -2.74741,-0.53951 -1.65126,-0.63364 -6.26987,3.71106 -8.52426,8.01872 -2.33168,4.45534 -4.12905,12.95585 -3.12048,14.75806 0.706,1.26155 3.12568,1.5354 13.36724,1.51285 7.97603,-0.0176 12.80596,-0.43003 13.3356,-1.13883 z m 15.18425,-3.57275 c 0,-0.8727 -2.24421,-1.65906 -10.25,-3.59155 -5.04782,-1.21847 -2.85174,1.23406 2.5,2.79194 6.49449,1.89054 7.75,2.02007 7.75,0.79961 z m -26.25,-22.72787 c -0.9625,-0.25153 -2.5375,-0.25153 -3.5,0 -0.9625,0.25153 -0.175,0.45732 1.75,0.45732 1.925,0 2.7125,-0.20579 1.75,-0.45732 z"
           id="path3764"
           style="fill:#000000;fill-opacity:1" />
      </g>
    </g>
  </g>
</svg>
